# xmcd
#
# Track frame offsets: 
#        150
#        18637
#        62120
#        79520
#        104575
#        137500
#        158572
#        198860
#
# Disc length: 2886 seconds
#
# Revision: 2
# Processed by: cddbd v1.5.1PL2 Copyright (c) Steve Scherf et al.
# Submitted via: ExactAudioCopy v0.95b3
#
DISCID=5f0b4408
DTITLE=The O'Jays - Ship Ahoy
DYEAR=1973
DGENRE=
TTITLE0=Put Your Hands Together
TTITLE1=Ship Ahoy
TTITLE2=This Air I Breath
TTITLE3=You Got Your Hooks In Me
TTITLE4=For The Love Of Money
TTITLE5=Now That We Found Love
TTITLE6=Don't Call Me Brother
TTITLE7=People Keep Tellin' Me
EXTD=
EXTT0=
EXTT1=
EXTT2=
EXTT3=
EXTT4=
EXTT5=
EXTT6=
EXTT7=
PLAYORDER=
